<svg data-v-73fdaaa2="" version="1.0" xmlns="http://www.w3.org/2000/svg" xmlns:xlink="http://www.w3.org/1999/xlink" width="100%" height="100%" viewBox="0 0 340.000000 250.000000" preserveAspectRatio="xMidYMid meet" color-interpolation-filters="sRGB" class="el-tooltip" style="margin: auto;"><rect data-v-73fdaaa2="" x="0" y="0" width="100%" height="100%" fill="#fff" fill-opacity="1"></rect> <rect data-v-73fdaaa2="" x="0" y="0" width="100%" height="100%" fill="url(#watermark)" fill-opacity="1" class="watermarklayer"></rect> <g data-v-73fdaaa2="" fill="#36bddb" class="icon-svg-group iconsvg" transform="translate(52.96233367919922,97.77239036560059)"><g class="iconsvg-imagesvg" transform="translate(0,0)"><rect fill="#36bddb" fill-opacity="0" stroke-width="2" x="0" y="0" width="60" height="54.455221060588"></rect> <svg x="0" y="0" width="60" height="54.455221060588" class="imagesvg-svg"><svg xmlns="http://www.w3.org/2000/svg" viewBox="0 0 238.17 216.16"><defs><linearGradient id="ae1a1f260-9d6a-4c8b-9d5b-3f6673bb8ef6" x1="-9242.5" y1="-3792.66" x2="-9234.13" y2="-3777.31" gradientTransform="rotate(-123.1 -3483.512 -4389.773)" gradientUnits="userSpaceOnUse"><stop offset="0" stop-color="#264d6e"></stop><stop offset="1" stop-color="#fff"></stop></linearGradient><linearGradient id="ba75fdbe0-98f5-4add-9cc9-8aeb6029127d" x1="-1322.13" y1="-9608.12" x2="-1360.26" y2="-9589.52" gradientTransform="rotate(116.9 -3624.094 -4284.067)" gradientUnits="userSpaceOnUse"><stop offset="0" stop-color="#264d6e"></stop><stop offset="1" stop-color="#fff"></stop></linearGradient><linearGradient id="c5ea72643-ac38-4217-ad0b-b8ddb920db58" x1="174.12" y1="144.69" x2="135.98" y2="163.3" gradientTransform="rotate(-3.1 108.583 87.444)" gradientUnits="userSpaceOnUse"><stop offset="0" stop-color="#264d6e"></stop><stop offset="1" stop-color="#fff"></stop></linearGradient><linearGradient id="de5d345f4-180e-4677-b65b-84893d8a7595" x1="-9019.58" y1="-3436.74" x2="-9057.72" y2="-3418.14" gradientTransform="rotate(-123.1 -3508.63 -4149.89)" gradientUnits="userSpaceOnUse"><stop offset="0" stop-color="#264d6e"></stop><stop offset="1" stop-color="#fff"></stop></linearGradient><linearGradient id="eec2f9bf3-49f4-4701-9a2b-4240c76dcc9c" x1="113.32" y1="180.71" x2="121.69" y2="196.06" gradientTransform="rotate(-3.1 108.583 87.444)" gradientUnits="userSpaceOnUse"><stop offset="0" stop-color="#264d6e"></stop><stop offset="1" stop-color="#fff"></stop></linearGradient><linearGradient id="f2bca5d0b-e16f-41b8-8110-28f0e9f05648" x1="-1249.6" y1="-9962.67" x2="-1241.23" y2="-9947.32" gradientTransform="rotate(116.9 -3677.342 -4520.275)" gradientUnits="userSpaceOnUse"><stop offset="0" stop-color="#264d6e"></stop><stop offset="1" stop-color="#fff"></stop></linearGradient></defs><g style="isolation:isolate"><g><path d="M232.4 160.32a36.89 36.89 0 0 0-8.5-9.14l-25.26-19.33L153.1 22.32a36.27 36.27 0 0 0-65.68-2.72 36.93 36.93 0 0 0-3.66 11.93l-4.11 31.55-72.09 94.2A36.27 36.27 0 0 0 38 215.52a36.86 36.86 0 0 0 12.17-2.8l29.37-12.21 117.63 15.33a36.27 36.27 0 0 0 35.19-55.52zM118.58 28a7.88 7.88 0 0 1 8.76 5l27 64.9-46.46-35.5 3.55-27.26a7.88 7.88 0 0 1 7.15-7.14zm-14.86 66.35l55.8 42.71L94.63 164zM39.5 187a7.89 7.89 0 0 1-9.76-2.61 7.88 7.88 0 0 1 0-10.11l42.72-55.82-7.56 58zm170.06-3.84a7.88 7.88 0 0 1-8.74 5.06l-69.7-9.08 54-22.44 21.83 16.7a7.89 7.89 0 0 1 2.61 9.71z" fill="#36bddb"></path><path opacity=".5" fill="url(#ae1a1f260-9d6a-4c8b-9d5b-3f6673bb8ef6)" style="mix-blend-mode:multiply" d="M198.64 131.86L179.9 86.77l-41.48-27.06 15.89 38.23 44.33 33.92z"></path><path opacity=".5" fill="url(#ba75fdbe0-98f5-4add-9cc9-8aeb6029127d)" style="mix-blend-mode:multiply" d="M71.39 126.42l-6.51 49.98 29.75-12.37 6.2-47.51-29.44 9.9z"></path><path opacity=".5" fill="url(#c5ea72643-ac38-4217-ad0b-b8ddb920db58)" style="mix-blend-mode:multiply" d="M138.57 175.99l46.54-19.35-25.59-19.58-44.25 18.39 23.3 20.54z"></path><path opacity=".5" fill="url(#de5d345f4-180e-4677-b65b-84893d8a7595)" style="mix-blend-mode:multiply" d="M147.91 93.03L107.88 62.4l-4.16 31.95 38.05 29.13 6.14-30.45z"></path><path opacity=".5" fill="url(#eec2f9bf3-49f4-4701-9a2b-4240c76dcc9c)" style="mix-blend-mode:multiply" d="M79.58 200.51l48.41 6.31 44.18-22.38-41.05-5.35-51.54 21.42z"></path><path opacity=".5" fill="url(#f2bca5d0b-e16f-41b8-8110-28f0e9f05648)" style="mix-blend-mode:multiply" d="M79.65 63.08l-29.67 38.77-2.71 49.45 25.17-32.88 7.21-55.34z"></path></g></g></svg></svg> <!----></g> <g transform="translate(67,14.977609634399414)"><g class="tp-name iconsvg-namesvg"><g><path transform="translate(-1.2646718465862,22.202016862291)" d="M13.24-11.52L13.24-11.52Q19.70-8.88 19.70-4.64L19.70-4.64L19.70-4.64Q19.70 2.16 11.41 2.16L11.41 2.16L1.85 2.16L1.85 1.32L8.99 1.32L8.99 1.32Q11.92 1.32 13.55-0.22L13.55-0.22L13.55-0.22Q15.26-1.83 14.81-4.47L14.81-4.47L14.81-4.47Q14.50-6.21 10.51-8.21L10.51-8.21L10.51-8.21Q10.00-8.46 7.50-9.53L7.50-9.53L7.50-9.53Q5.59-10.34 4.50-11.02L4.50-11.02L4.50-11.02Q1.26-13.01 1.26-16.19L1.26-16.19L1.26-16.19Q1.26-19.31 3.46-20.82L3.46-20.82L3.46-20.82Q5.23-22.06 8.07-22.06L8.07-22.06L18.77-22.06L18.77-21.22L11.47-21.22L11.47-21.22Q8.82-21.22 7.31-19.73L7.31-19.73L7.31-19.73Q5.73-18.21 6.15-15.91L6.15-15.91L6.15-15.91Q6.38-14.70 8.49-13.57L8.49-13.57L8.49-13.57Q9.53-13.01 13.24-11.52L13.24-11.52ZM36.65-13.86L32.21-13.86L32.21-13.86Q29.79-13.86 28.50-12.20L28.50-12.20L28.50-12.20Q27.40-10.82 27.40-8.85L27.40-8.85L27.40-3.63L27.40-3.63Q27.40-1.83 28.38-0.45L28.38-0.45L28.38-0.45Q29.68 1.38 32.21 1.38L32.21 1.38L36.65 1.38L36.65 2.22L30.27 2.22L30.27 2.22Q22.62 2.22 22.62-4.61L22.62-4.61L22.62-7.87L22.62-7.87Q22.62-14.70 30.27-14.70L30.27-14.70L36.65-14.70L36.65-13.86ZM43.90-14.70L46.96-14.70L46.96-14.70Q54.61-14.70 54.61-7.87L54.61-7.87L54.61 2.22L49.83 2.22L49.83-8.85L49.83-8.85Q49.83-10.82 48.73-12.20L48.73-12.20L48.73-12.20Q47.44-13.86 45.02-13.86L45.02-13.86L43.90-13.86L43.90 2.22L39.12 2.22L39.12-22.20L43.90-22.20L43.90-14.70ZM74.28-5.59L61.55-5.59L61.55-3.63L61.55-3.63Q61.55-1.83 62.53-0.45L62.53-0.45L62.53-0.45Q63.82 1.38 66.35 1.38L66.35 1.38L74.28 1.38L74.28 2.22L64.41 2.22L64.41 2.22Q56.77 2.22 56.77-4.61L56.77-4.61L56.77-7.87L56.77-7.87Q56.77-14.70 64.41-14.70L64.41-14.70L66.63-14.70L66.63-14.70Q74.28-14.70 74.28-7.87L74.28-7.87L74.28-5.59ZM65.51-13.97L65.51-13.97Q63.37-13.97 62.33-12.20L62.33-12.20L62.33-12.20Q61.55-10.85 61.55-8.85L61.55-8.85L61.55-6.44L69.50-6.44L69.50-8.85L69.50-8.85Q69.50-10.82 68.66-12.20L68.66-12.20L68.66-12.20Q67.59-13.97 65.51-13.97L65.51-13.97ZM87.37-14.70L87.37-22.20L92.15-22.20L92.15 2.22L84.34 2.22L84.34 2.22Q76.67 2.22 76.67-4.61L76.67-4.61L76.67-7.87L76.67-7.87Q76.67-14.70 84.34-14.70L84.34-14.70L87.37-14.70ZM86.28 1.38L87.37 1.38L87.37-13.86L86.28-13.86L86.28-13.86Q83.86-13.86 82.57-12.20L82.57-12.20L82.57-12.20Q81.44-10.82 81.44-8.85L81.44-8.85L81.44-3.63L81.44-3.63Q81.44-1.83 82.43-0.45L82.43-0.45L82.43-0.45Q83.75 1.38 86.28 1.38L86.28 1.38ZM105.45 1.38L105.45-14.70L110.22-14.70L110.22 2.22L102.80 2.22L102.80 2.22Q95.13 2.22 95.13-4.61L95.13-4.61L95.13-14.70L99.91-14.70L99.91-3.63L99.91-3.63Q99.91 1.38 103.93 1.38L103.93 1.38L105.45 1.38ZM112.92 2.30L112.92-22.20L117.70-22.20L117.70 2.30L112.92 2.30ZM137.54-5.59L124.81-5.59L124.81-3.63L124.81-3.63Q124.81-1.83 125.79-0.45L125.79-0.45L125.79-0.45Q127.09 1.38 129.61 1.38L129.61 1.38L137.54 1.38L137.54 2.22L127.68 2.22L127.68 2.22Q120.03 2.22 120.03-4.61L120.03-4.61L120.03-7.87L120.03-7.87Q120.03-14.70 127.68-14.70L127.68-14.70L129.90-14.70L129.90-14.70Q137.54-14.70 137.54-7.87L137.54-7.87L137.54-5.59ZM128.77-13.97L128.77-13.97Q126.64-13.97 125.60-12.20L125.60-12.20L125.60-12.20Q124.81-10.85 124.81-8.85L124.81-8.85L124.81-6.44L132.76-6.44L132.76-8.85L132.76-8.85Q132.76-10.82 131.92-12.20L131.92-12.20L131.92-12.20Q130.85-13.97 128.77-13.97L128.77-13.97ZM161.51 2.16L156.73 2.16L153.95-5.93L146.70-5.93L143.92 2.16L139.14 2.16L147.43-22.03L153.22-22.03L161.51 2.16ZM149.74-14.84L146.98-6.77L153.67-6.77L150.89-14.87L150.33-17.34L149.74-14.84ZM163.28 2.30L163.28-22.20L168.34-22.20L168.34 2.30L163.28 2.30Z"></path></g> <!----> <!----> <!----> <!----> <!----> <!----> <!----></g> <!----></g></g></svg>
